<svg viewBox="0 0 90 93" fill="none" xmlns="http://www.w3.org/2000/svg">
<rect x="5.5" y="5.5" width="79" height="79" rx="30.5" stroke="url(#paint0_linear_138_65)" stroke-opacity="0.3" stroke-width="11"/>
<path d="M69.4375 33.25L64.0938 34.1406L67.6562 29.6875L61.4219 31.4687C53.4062 22.5625 40.9375 32.3594 44.5 40.375C30.25 40.375 23.125 29.6875 23.125 29.6875C23.125 29.6875 17.7812 37.7031 26.6875 43.9375L21.3438 42.1562C21.3438 47.5 24.9062 51.0625 31.1406 52.8437H24.9062C28.4688 59.9687 34.7031 59.9687 34.7031 59.9687C34.7031 59.9687 29.3594 64.4219 19.5625 64.4219C48.9531 78.6719 66.7656 51.9531 64.0938 37.7031L69.4375 33.25Z" fill="#7E5EFF"/>
<rect x="28" y="59" width="34" height="34" rx="17" fill="#00FFD1"/>
<path d="M51.6667 71L42.5 80.1667L38.3334 76" stroke="black" stroke-width="3.07692" stroke-linecap="round" stroke-linejoin="round"/>
<defs>
<linearGradient id="paint0_linear_138_65" x1="45" y1="0" x2="45" y2="90" gradientUnits="userSpaceOnUse">
<stop stop-color="white"/>
<stop offset="1" stop-color="white" stop-opacity="0"/>
</linearGradient>
</defs>
</svg>
