<svg width="35" height="35" viewBox="0 0 35 35" fill="none" xmlns="http://www.w3.org/2000/svg">
<g clip-path="url(#clip0_73_79)">
<path d="M20.09 20.16L18.396 24.808C18.354 24.934 18.354 25.074 18.396 25.214L21.308 33.208L24.682 31.262L20.636 20.16C20.538 19.908 20.188 19.908 20.09 20.16Z" fill="white"/>
<path d="M23.492 12.348C23.394 12.096 23.044 12.096 22.946 12.348L21.252 16.996C21.21 17.122 21.21 17.262 21.252 17.402L26.026 30.492L29.4 28.546L23.492 12.362V12.348Z" fill="white"/>
<path d="M17.5 2.17C17.584 2.17 17.668 2.198 17.738 2.24L30.59 9.66C30.744 9.744 30.828 9.912 30.828 10.08V24.92C30.828 25.088 30.73 25.256 30.59 25.34L17.738 32.76C17.668 32.802 17.584 32.83 17.5 32.83C17.416 32.83 17.332 32.802 17.262 32.76L4.41001 25.34C4.25601 25.256 4.17201 25.088 4.17201 24.92V10.066C4.17201 9.898 4.27001 9.73 4.41001 9.646L17.262 2.226C17.332 2.184 17.416 2.156 17.5 2.156V2.17ZM17.5 0C17.038 0 16.59 0.112 16.17 0.35L3.31801 7.77C2.49201 8.246 1.98801 9.114 1.98801 10.066V24.906C1.98801 25.858 2.49201 26.726 3.31801 27.202L16.17 34.622C16.576 34.86 17.038 34.972 17.5 34.972C17.962 34.972 18.41 34.86 18.83 34.622L31.682 27.202C32.508 26.726 33.012 25.858 33.012 24.906V10.066C33.012 9.114 32.508 8.246 31.682 7.77L18.816 0.35C18.41 0.112 17.948 0 17.486 0H17.5Z" fill="white"/>
<path d="M8.98801 30.506L10.178 27.258L12.558 29.232L10.332 31.276L8.98801 30.506Z" fill="white"/>
<path d="M16.408 9.01601H13.146C12.908 9.01601 12.684 9.17001 12.6 9.39401L5.61401 28.546L8.98801 30.492L16.688 9.39401C16.758 9.19801 16.618 9.00201 16.422 9.00201L16.408 9.01601Z" fill="white"/>
<path d="M22.12 9.01601H18.858C18.62 9.01601 18.396 9.17001 18.312 9.39401L10.332 31.262L13.706 33.208L22.386 9.39401C22.456 9.19801 22.316 9.00201 22.12 9.00201V9.01601Z" fill="white"/>
</g>
<defs>
<clipPath id="clip0_73_79">
<rect width="35" height="35" fill="white"/>
</clipPath>
</defs>
</svg>
