<svg width="38" height="39" viewBox="0 0 38 39" fill="none" xmlns="http://www.w3.org/2000/svg">
<path d="M36.6375 12.4433C36.1328 11.1817 35.4936 9.98738 34.7366 8.86034C31.3218 3.81386 25.5352 0.5 18.9916 0.5C8.49491 0.5 0 9.01173 0 19.4916C0 29.9883 8.51173 38.5 18.9916 38.5C25.552 38.5 31.3218 35.1861 34.7366 30.1397C35.4936 29.0294 36.116 27.8351 36.6375 26.5735C37.5122 24.3867 38 21.998 38 19.5084C37.9832 17.0188 37.5122 14.6301 36.6375 12.4433ZM34.0974 17.5739H12.3471C12.6835 16.3964 13.3059 15.3535 14.147 14.5292C15.4254 13.2508 17.1917 12.4602 19.143 12.4602H32.4993C33.3236 14.0246 33.8619 15.7404 34.0974 17.5739ZM18.8907 4.18393C23.2138 4.18393 27.1332 5.98384 29.9256 8.87716H19.614C16.6702 8.87716 14.0124 10.0715 12.0947 11.9892C10.5976 13.4863 9.55467 15.4039 9.16777 17.5739H3.70075C4.64276 10.021 11.0854 4.18393 18.8907 4.18393ZM18.8907 34.8497C11.0854 34.8497 4.64276 29.0126 3.68393 21.4597H9.15095C10.0593 26.4053 14.3993 30.1565 19.614 30.1565H29.9256C27.1501 33.0498 23.2306 34.8497 18.8907 34.8497ZM19.143 26.5903C15.9132 26.5903 13.1881 24.4203 12.3471 21.4597H34.0974C33.8619 23.2933 33.3068 25.0091 32.4993 26.5903H19.143Z" fill="#A58EFF"/>
</svg>
